# xmcd CD database file
#
# Track frame offsets:
#	150
#	10857
#	28948
#	41800
#	62123
#	88836
#	101692
#	115551
#	129187
#	145051
#
# Disc length: 2134 seconds
#
# Revision: 0
# Processed by: cddbd v1.5.2PL0 Copyright (c) Steve Scherf et al.
# Submitted via: CDex 1.75
#
DISCID=8108540a
DTITLE=Session Noisses - La Entereza
DYEAR=2012
DGENRE=Jazz
TTITLE0=La Entrada
TTITLE1=Alm Rola
TTITLE2=Swinging Son
TTITLE3=La Entereza
TTITLE4=Cuatro Pensamientos
TTITLE5=Noche y Viento
TTITLE6=Bulerias
TTITLE7=Rumba Clasica
TTITLE8=Wolle Asunto
TTITLE9=Paseo Por El Mar
EXTD=YEAR: 2012
EXTT0=
EXTT1=
EXTT2=
EXTT3=
EXTT4=
EXTT5=
EXTT6=
EXTT7=
EXTT8=
EXTT9=
PLAYORDER=
